# xmcd
#
# Track frame offsets: 
#        150
#        10592
#        21285
#        30765
#        40992
#        53370
#        64692
#        75490
#        85232
#        94370
#        107512
#        119280
#        135640
#        147680
#        158742
#        171697
#        182402
#        193895
#        205875
#
# Disc length: 2892 seconds
#
# Revision: 0
# Processed by: cddbd v1.5.2PL0 Copyright (c) Steve Scherf et al.
# Submitted via: ExactAudioCopyFreeDBPlugin 1.0
#
DISCID=f80b4a13
DTITLE=Various Artist - 75 greatest country songs - disc 4
DYEAR=2008
DGENRE=Country
TTITLE0=Wings of a Dove
TTITLE1=Walk on by
TTITLE2=A Little Bitty Tear
TTITLE3=Memories are Made of This
TTITLE4=Please Don't Tell Me How the Story Ends
TTITLE5=Young Love
TTITLE6=Please Help Me, I'm Falling
TTITLE7=Don't Come Home a Drinkin' (With Lovin' on Your Mind)
TTITLE8=Love's Gonna Live Here
TTITLE9=Devil Woman
TTITLE10=Walkin' after Midnight
TTITLE11=Release Me
TTITLE12=Make the World Go Away
TTITLE13=King of the Road
TTITLE14=Distant Drums
TTITLE15=San Antonio Rose
TTITLE16=Southern Rains
TTITLE17=Jolene
TTITLE18=Unchained Melody
EXTD=
EXTT0=
EXTT1=
EXTT2=
EXTT3=
EXTT4=
EXTT5=
EXTT6=
EXTT7=
EXTT8=
EXTT9=
EXTT10=
EXTT11=
EXTT12=
EXTT13=
EXTT14=
EXTT15=
EXTT16=
EXTT17=
EXTT18=
PLAYORDER=
